<svg xmlns="http://www.w3.org/2000/svg" xmlns:xlink="http://www.w3.org/1999/xlink" width="200" zoomAndPan="magnify" viewBox="0 0 150 74.999997" height="100" preserveAspectRatio="xMidYMid meet" version="1.0"><defs><g/></defs><g fill="#000000" fill-opacity="1"><g transform="translate(2.329104, 52.209391)"><g><path d="M 1.109375 0 L 1.109375 -7.578125 L 1.9375 -7.578125 L 4.84375 -2.84375 L 4.46875 -2.859375 L 7.40625 -7.578125 L 8.171875 -7.578125 L 8.171875 0 L 7.328125 0 L 7.328125 -3.46875 C 7.328125 -4.113281 7.335938 -4.695312 7.359375 -5.21875 C 7.378906 -5.738281 7.421875 -6.253906 7.484375 -6.765625 L 7.640625 -6.46875 L 4.921875 -2.203125 L 4.328125 -2.203125 L 1.6875 -6.40625 L 1.8125 -6.765625 C 1.863281 -6.285156 1.898438 -5.789062 1.921875 -5.28125 C 1.941406 -4.769531 1.953125 -4.164062 1.953125 -3.46875 L 1.953125 0 Z M 1.109375 0 "/></g></g></g><g fill="#000000" fill-opacity="1"><g transform="translate(11.619589, 52.209391)"><g><path d="M 3 0.109375 C 2.507812 0.109375 2.066406 -0.015625 1.671875 -0.265625 C 1.273438 -0.523438 0.957031 -0.878906 0.71875 -1.328125 C 0.488281 -1.773438 0.375 -2.28125 0.375 -2.84375 C 0.375 -3.40625 0.492188 -3.90625 0.734375 -4.34375 C 0.972656 -4.789062 1.289062 -5.140625 1.6875 -5.390625 C 2.09375 -5.640625 2.546875 -5.765625 3.046875 -5.765625 C 3.335938 -5.765625 3.609375 -5.722656 3.859375 -5.640625 C 4.117188 -5.554688 4.347656 -5.4375 4.546875 -5.28125 C 4.742188 -5.125 4.90625 -4.941406 5.03125 -4.734375 C 5.164062 -4.523438 5.257812 -4.304688 5.3125 -4.078125 L 5.078125 -4.1875 L 5.109375 -5.65625 L 5.921875 -5.65625 L 5.921875 0 L 5.09375 0 L 5.09375 -1.390625 L 5.3125 -1.53125 C 5.257812 -1.3125 5.160156 -1.101562 5.015625 -0.90625 C 4.878906 -0.707031 4.707031 -0.53125 4.5 -0.375 C 4.289062 -0.226562 4.054688 -0.109375 3.796875 -0.015625 C 3.546875 0.0664062 3.28125 0.109375 3 0.109375 Z M 3.1875 -0.671875 C 3.5625 -0.671875 3.894531 -0.757812 4.1875 -0.9375 C 4.488281 -1.125 4.722656 -1.378906 4.890625 -1.703125 C 5.054688 -2.035156 5.140625 -2.414062 5.140625 -2.84375 C 5.140625 -3.257812 5.054688 -3.628906 4.890625 -3.953125 C 4.722656 -4.273438 4.488281 -4.53125 4.1875 -4.71875 C 3.894531 -4.90625 3.5625 -5 3.1875 -5 C 2.800781 -5 2.460938 -4.90625 2.171875 -4.71875 C 1.878906 -4.53125 1.644531 -4.273438 1.46875 -3.953125 C 1.300781 -3.628906 1.21875 -3.257812 1.21875 -2.84375 C 1.21875 -2.425781 1.300781 -2.050781 1.46875 -1.71875 C 1.632812 -1.394531 1.863281 -1.140625 2.15625 -0.953125 C 2.457031 -0.765625 2.800781 -0.671875 3.1875 -0.671875 Z M 3.1875 -0.671875 "/></g></g></g><g fill="#000000" fill-opacity="1"><g transform="translate(18.333002, 52.209391)"><g><path d="M 0.796875 0 L 0.796875 -5.65625 L 1.609375 -5.65625 L 1.625 -4.140625 L 1.53125 -4.359375 C 1.613281 -4.609375 1.742188 -4.835938 1.921875 -5.046875 C 2.097656 -5.265625 2.304688 -5.4375 2.546875 -5.5625 C 2.796875 -5.695312 3.070312 -5.765625 3.375 -5.765625 C 3.488281 -5.765625 3.597656 -5.753906 3.703125 -5.734375 C 3.816406 -5.722656 3.910156 -5.703125 3.984375 -5.671875 L 3.75 -4.765625 C 3.65625 -4.804688 3.5625 -4.835938 3.46875 -4.859375 C 3.375 -4.878906 3.28125 -4.890625 3.1875 -4.890625 C 2.945312 -4.890625 2.726562 -4.84375 2.53125 -4.75 C 2.332031 -4.664062 2.164062 -4.546875 2.03125 -4.390625 C 1.894531 -4.234375 1.789062 -4.050781 1.71875 -3.84375 C 1.644531 -3.644531 1.609375 -3.429688 1.609375 -3.203125 L 1.609375 0 Z M 0.796875 0 "/></g></g></g><g fill="#000000" fill-opacity="1"><g transform="translate(22.371873, 52.209391)"><g><path d="M 1.515625 -1.8125 L 1.484375 -2.765625 L 4.4375 -5.65625 L 5.53125 -5.65625 Z M 0.796875 0 L 0.796875 -8.015625 L 1.609375 -8.015625 L 1.609375 0 Z M 4.671875 0 L 2.28125 -2.765625 L 2.859375 -3.328125 L 5.734375 0 Z M 4.671875 0 "/></g></g></g><g fill="#000000" fill-opacity="1"><g transform="translate(28.197373, 52.209391)"><g><path d="M 3.28125 0.109375 C 2.71875 0.109375 2.21875 -0.0078125 1.78125 -0.25 C 1.34375 -0.5 1 -0.84375 0.75 -1.28125 C 0.507812 -1.726562 0.390625 -2.234375 0.390625 -2.796875 C 0.390625 -3.242188 0.457031 -3.644531 0.59375 -4 C 0.726562 -4.351562 0.921875 -4.664062 1.171875 -4.9375 C 1.421875 -5.207031 1.71875 -5.414062 2.0625 -5.5625 C 2.414062 -5.707031 2.789062 -5.78125 3.1875 -5.78125 C 3.570312 -5.78125 3.921875 -5.710938 4.234375 -5.578125 C 4.546875 -5.441406 4.816406 -5.25 5.046875 -5 C 5.273438 -4.757812 5.445312 -4.472656 5.5625 -4.140625 C 5.675781 -3.816406 5.726562 -3.453125 5.71875 -3.046875 L 5.703125 -2.671875 L 1 -2.671875 L 0.875 -3.359375 L 5.09375 -3.359375 L 4.890625 -3.171875 L 4.890625 -3.4375 C 4.878906 -3.695312 4.804688 -3.945312 4.671875 -4.1875 C 4.535156 -4.425781 4.34375 -4.617188 4.09375 -4.765625 C 3.84375 -4.921875 3.539062 -5 3.1875 -5 C 2.789062 -5 2.441406 -4.914062 2.140625 -4.75 C 1.847656 -4.59375 1.617188 -4.351562 1.453125 -4.03125 C 1.296875 -3.71875 1.21875 -3.328125 1.21875 -2.859375 C 1.21875 -2.410156 1.304688 -2.019531 1.484375 -1.6875 C 1.660156 -1.363281 1.90625 -1.109375 2.21875 -0.921875 C 2.539062 -0.742188 2.929688 -0.65625 3.390625 -0.65625 C 3.660156 -0.65625 3.925781 -0.703125 4.1875 -0.796875 C 4.445312 -0.890625 4.738281 -1.066406 5.0625 -1.328125 L 5.484375 -0.75 C 5.316406 -0.582031 5.113281 -0.4375 4.875 -0.3125 C 4.644531 -0.1875 4.394531 -0.0820312 4.125 0 C 3.851562 0.0703125 3.570312 0.109375 3.28125 0.109375 Z M 3.28125 0.109375 "/></g></g></g><g fill="#000000" fill-opacity="1"><g transform="translate(34.282757, 52.209391)"><g><path d="M 1.5625 0 L 1.5625 -7.140625 L 2.375 -7.140625 L 2.375 0 Z M 0.296875 -4.875 L 0.296875 -5.65625 L 3.8125 -5.65625 L 3.8125 -4.875 Z M 0.296875 -4.875 "/></g></g></g><g fill="#000000" fill-opacity="1"><g transform="translate(38.299976, 52.209391)"><g><path d="M 1 0 L 1 -5.65625 L 1.8125 -5.65625 L 1.8125 0 Z M 1.40625 -6.875 C 1.207031 -6.875 1.054688 -6.925781 0.953125 -7.03125 C 0.847656 -7.132812 0.796875 -7.273438 0.796875 -7.453125 C 0.796875 -7.640625 0.847656 -7.785156 0.953125 -7.890625 C 1.054688 -8.003906 1.207031 -8.0625 1.40625 -8.0625 C 1.601562 -8.0625 1.753906 -8.003906 1.859375 -7.890625 C 1.972656 -7.785156 2.03125 -7.640625 2.03125 -7.453125 C 2.03125 -7.285156 1.972656 -7.144531 1.859375 -7.03125 C 1.753906 -6.925781 1.601562 -6.875 1.40625 -6.875 Z M 1.40625 -6.875 "/></g></g></g><g fill="#000000" fill-opacity="1"><g transform="translate(41.104454, 52.209391)"><g><path d="M 0.796875 0 L 0.796875 -5.65625 L 1.59375 -5.65625 L 1.625 -4.46875 L 1.5 -4.421875 C 1.570312 -4.660156 1.710938 -4.878906 1.921875 -5.078125 C 2.128906 -5.285156 2.378906 -5.453125 2.671875 -5.578125 C 2.960938 -5.703125 3.265625 -5.765625 3.578125 -5.765625 C 3.992188 -5.765625 4.34375 -5.679688 4.625 -5.515625 C 4.90625 -5.347656 5.117188 -5.09375 5.265625 -4.75 C 5.410156 -4.40625 5.484375 -3.96875 5.484375 -3.4375 L 5.484375 0 L 4.65625 0 L 4.65625 -3.390625 C 4.65625 -3.765625 4.601562 -4.070312 4.5 -4.3125 C 4.40625 -4.550781 4.253906 -4.726562 4.046875 -4.84375 C 3.847656 -4.96875 3.601562 -5.023438 3.3125 -5.015625 C 3.0625 -5.015625 2.832031 -4.972656 2.625 -4.890625 C 2.414062 -4.804688 2.234375 -4.691406 2.078125 -4.546875 C 1.929688 -4.398438 1.816406 -4.234375 1.734375 -4.046875 C 1.648438 -3.859375 1.609375 -3.65625 1.609375 -3.4375 L 1.609375 0 L 1.203125 0 C 1.148438 0 1.09375 0 1.03125 0 C 0.96875 0 0.890625 0 0.796875 0 Z M 0.796875 0 "/></g></g></g><g fill="#000000" fill-opacity="1"><g transform="translate(47.341426, 52.209391)"><g><path d="M 3.234375 2.484375 C 2.804688 2.484375 2.40625 2.414062 2.03125 2.28125 C 1.65625 2.15625 1.347656 2 1.109375 1.8125 L 1.421875 1.125 C 1.566406 1.238281 1.734375 1.335938 1.921875 1.421875 C 2.117188 1.515625 2.328125 1.585938 2.546875 1.640625 C 2.773438 1.703125 3.003906 1.734375 3.234375 1.734375 C 3.648438 1.734375 4.003906 1.65625 4.296875 1.5 C 4.597656 1.34375 4.820312 1.113281 4.96875 0.8125 C 5.125 0.507812 5.203125 0.132812 5.203125 -0.3125 L 5.203125 -1.390625 L 5.34375 -1.421875 C 5.269531 -1.148438 5.125 -0.894531 4.90625 -0.65625 C 4.695312 -0.425781 4.4375 -0.238281 4.125 -0.09375 C 3.8125 0.0390625 3.484375 0.109375 3.140625 0.109375 C 2.609375 0.109375 2.132812 -0.015625 1.71875 -0.265625 C 1.3125 -0.523438 0.988281 -0.875 0.75 -1.3125 C 0.507812 -1.757812 0.390625 -2.265625 0.390625 -2.828125 C 0.390625 -3.398438 0.507812 -3.90625 0.75 -4.34375 C 0.988281 -4.789062 1.3125 -5.140625 1.71875 -5.390625 C 2.132812 -5.640625 2.601562 -5.765625 3.125 -5.765625 C 3.34375 -5.765625 3.554688 -5.738281 3.765625 -5.6875 C 3.972656 -5.632812 4.164062 -5.554688 4.34375 -5.453125 C 4.519531 -5.359375 4.679688 -5.242188 4.828125 -5.109375 C 4.972656 -4.984375 5.09375 -4.84375 5.1875 -4.6875 C 5.289062 -4.539062 5.363281 -4.382812 5.40625 -4.21875 L 5.171875 -4.25 L 5.203125 -5.65625 L 6.015625 -5.65625 L 6.015625 -0.34375 C 6.015625 0.101562 5.945312 0.503906 5.8125 0.859375 C 5.6875 1.210938 5.5 1.507812 5.25 1.75 C 5.007812 1.988281 4.71875 2.171875 4.375 2.296875 C 4.03125 2.421875 3.648438 2.484375 3.234375 2.484375 Z M 3.234375 -0.671875 C 3.617188 -0.671875 3.957031 -0.757812 4.25 -0.9375 C 4.550781 -1.125 4.789062 -1.378906 4.96875 -1.703125 C 5.144531 -2.035156 5.234375 -2.414062 5.234375 -2.84375 C 5.234375 -3.257812 5.144531 -3.628906 4.96875 -3.953125 C 4.800781 -4.273438 4.566406 -4.53125 4.265625 -4.71875 C 3.960938 -4.90625 3.617188 -5 3.234375 -5 C 2.847656 -5 2.503906 -4.90625 2.203125 -4.71875 C 1.898438 -4.53125 1.660156 -4.273438 1.484375 -3.953125 C 1.316406 -3.628906 1.234375 -3.257812 1.234375 -2.84375 C 1.234375 -2.425781 1.316406 -2.050781 1.484375 -1.71875 C 1.660156 -1.394531 1.894531 -1.140625 2.1875 -0.953125 C 2.488281 -0.765625 2.835938 -0.671875 3.234375 -0.671875 Z M 3.234375 -0.671875 "/></g></g></g><g fill="#000000" fill-opacity="1"><g transform="translate(54.152285, 52.209391)"><g/></g></g><g fill="#000000" fill-opacity="1"><g transform="translate(57.184145, 52.209391)"><g><path d="M 0.796875 2.375 L 0.796875 -5.65625 L 1.609375 -5.65625 L 1.625 -4.28125 L 1.46875 -4.25 C 1.53125 -4.53125 1.671875 -4.78125 1.890625 -5 C 2.109375 -5.226562 2.375 -5.410156 2.6875 -5.546875 C 3 -5.691406 3.328125 -5.765625 3.671875 -5.765625 C 4.171875 -5.765625 4.617188 -5.632812 5.015625 -5.375 C 5.421875 -5.125 5.742188 -4.78125 5.984375 -4.34375 C 6.222656 -3.90625 6.34375 -3.398438 6.34375 -2.828125 C 6.34375 -2.265625 6.226562 -1.757812 6 -1.3125 C 5.769531 -0.875 5.453125 -0.523438 5.046875 -0.265625 C 4.640625 -0.015625 4.1875 0.109375 3.6875 0.109375 C 3.332031 0.109375 2.992188 0.0351562 2.671875 -0.109375 C 2.359375 -0.253906 2.085938 -0.441406 1.859375 -0.671875 C 1.640625 -0.910156 1.492188 -1.164062 1.421875 -1.4375 L 1.609375 -1.4375 L 1.609375 2.375 Z M 3.546875 -0.671875 C 3.929688 -0.671875 4.269531 -0.765625 4.5625 -0.953125 C 4.863281 -1.140625 5.097656 -1.394531 5.265625 -1.71875 C 5.441406 -2.039062 5.53125 -2.410156 5.53125 -2.828125 C 5.53125 -3.242188 5.441406 -3.613281 5.265625 -3.9375 C 5.097656 -4.257812 4.863281 -4.515625 4.5625 -4.703125 C 4.269531 -4.890625 3.929688 -4.984375 3.546875 -4.984375 C 3.171875 -4.984375 2.832031 -4.890625 2.53125 -4.703125 C 2.226562 -4.523438 1.988281 -4.273438 1.8125 -3.953125 C 1.644531 -3.628906 1.5625 -3.257812 1.5625 -2.84375 C 1.5625 -2.414062 1.644531 -2.039062 1.8125 -1.71875 C 1.988281 -1.394531 2.226562 -1.140625 2.53125 -0.953125 C 2.832031 -0.765625 3.171875 -0.671875 3.546875 -0.671875 Z M 3.546875 -0.671875 "/></g></g></g><g fill="#000000" fill-opacity="1"><g transform="translate(63.91921, 52.209391)"><g><path d="M 3 0.109375 C 2.507812 0.109375 2.066406 -0.015625 1.671875 -0.265625 C 1.273438 -0.523438 0.957031 -0.878906 0.71875 -1.328125 C 0.488281 -1.773438 0.375 -2.28125 0.375 -2.84375 C 0.375 -3.40625 0.492188 -3.90625 0.734375 -4.34375 C 0.972656 -4.789062 1.289062 -5.140625 1.6875 -5.390625 C 2.09375 -5.640625 2.546875 -5.765625 3.046875 -5.765625 C 3.335938 -5.765625 3.609375 -5.722656 3.859375 -5.640625 C 4.117188 -5.554688 4.347656 -5.4375 4.546875 -5.28125 C 4.742188 -5.125 4.90625 -4.941406 5.03125 -4.734375 C 5.164062 -4.523438 5.257812 -4.304688 5.3125 -4.078125 L 5.078125 -4.1875 L 5.109375 -5.65625 L 5.921875 -5.65625 L 5.921875 0 L 5.09375 0 L 5.09375 -1.390625 L 5.3125 -1.53125 C 5.257812 -1.3125 5.160156 -1.101562 5.015625 -0.90625 C 4.878906 -0.707031 4.707031 -0.53125 4.5 -0.375 C 4.289062 -0.226562 4.054688 -0.109375 3.796875 -0.015625 C 3.546875 0.0664062 3.28125 0.109375 3 0.109375 Z M 3.1875 -0.671875 C 3.5625 -0.671875 3.894531 -0.757812 4.1875 -0.9375 C 4.488281 -1.125 4.722656 -1.378906 4.890625 -1.703125 C 5.054688 -2.035156 5.140625 -2.414062 5.140625 -2.84375 C 5.140625 -3.257812 5.054688 -3.628906 4.890625 -3.953125 C 4.722656 -4.273438 4.488281 -4.53125 4.1875 -4.71875 C 3.894531 -4.90625 3.5625 -5 3.1875 -5 C 2.800781 -5 2.460938 -4.90625 2.171875 -4.71875 C 1.878906 -4.53125 1.644531 -4.273438 1.46875 -3.953125 C 1.300781 -3.628906 1.21875 -3.257812 1.21875 -2.84375 C 1.21875 -2.425781 1.300781 -2.050781 1.46875 -1.71875 C 1.632812 -1.394531 1.863281 -1.140625 2.15625 -0.953125 C 2.457031 -0.765625 2.800781 -0.671875 3.1875 -0.671875 Z M 3.1875 -0.671875 "/></g></g></g><g fill="#000000" fill-opacity="1"><g transform="translate(70.632623, 52.209391)"><g><path d="M 0.796875 0 L 0.796875 -5.65625 L 1.609375 -5.65625 L 1.625 -4.140625 L 1.53125 -4.359375 C 1.613281 -4.609375 1.742188 -4.835938 1.921875 -5.046875 C 2.097656 -5.265625 2.304688 -5.4375 2.546875 -5.5625 C 2.796875 -5.695312 3.070312 -5.765625 3.375 -5.765625 C 3.488281 -5.765625 3.597656 -5.753906 3.703125 -5.734375 C 3.816406 -5.722656 3.910156 -5.703125 3.984375 -5.671875 L 3.75 -4.765625 C 3.65625 -4.804688 3.5625 -4.835938 3.46875 -4.859375 C 3.375 -4.878906 3.28125 -4.890625 3.1875 -4.890625 C 2.945312 -4.890625 2.726562 -4.84375 2.53125 -4.75 C 2.332031 -4.664062 2.164062 -4.546875 2.03125 -4.390625 C 1.894531 -4.234375 1.789062 -4.050781 1.71875 -3.84375 C 1.644531 -3.644531 1.609375 -3.429688 1.609375 -3.203125 L 1.609375 0 Z M 0.796875 0 "/></g></g></g><g fill="#000000" fill-opacity="1"><g transform="translate(74.671494, 52.209391)"><g><path d="M 3 0.109375 C 2.507812 0.109375 2.066406 -0.015625 1.671875 -0.265625 C 1.273438 -0.523438 0.957031 -0.878906 0.71875 -1.328125 C 0.488281 -1.773438 0.375 -2.28125 0.375 -2.84375 C 0.375 -3.40625 0.492188 -3.90625 0.734375 -4.34375 C 0.972656 -4.789062 1.289062 -5.140625 1.6875 -5.390625 C 2.09375 -5.640625 2.546875 -5.765625 3.046875 -5.765625 C 3.335938 -5.765625 3.609375 -5.722656 3.859375 -5.640625 C 4.117188 -5.554688 4.347656 -5.4375 4.546875 -5.28125 C 4.742188 -5.125 4.90625 -4.941406 5.03125 -4.734375 C 5.164062 -4.523438 5.257812 -4.304688 5.3125 -4.078125 L 5.078125 -4.1875 L 5.109375 -5.65625 L 5.921875 -5.65625 L 5.921875 0 L 5.09375 0 L 5.09375 -1.390625 L 5.3125 -1.53125 C 5.257812 -1.3125 5.160156 -1.101562 5.015625 -0.90625 C 4.878906 -0.707031 4.707031 -0.53125 4.5 -0.375 C 4.289062 -0.226562 4.054688 -0.109375 3.796875 -0.015625 C 3.546875 0.0664062 3.28125 0.109375 3 0.109375 Z M 3.1875 -0.671875 C 3.5625 -0.671875 3.894531 -0.757812 4.1875 -0.9375 C 4.488281 -1.125 4.722656 -1.378906 4.890625 -1.703125 C 5.054688 -2.035156 5.140625 -2.414062 5.140625 -2.84375 C 5.140625 -3.257812 5.054688 -3.628906 4.890625 -3.953125 C 4.722656 -4.273438 4.488281 -4.53125 4.1875 -4.71875 C 3.894531 -4.90625 3.5625 -5 3.1875 -5 C 2.800781 -5 2.460938 -4.90625 2.171875 -4.71875 C 1.878906 -4.53125 1.644531 -4.273438 1.46875 -3.953125 C 1.300781 -3.628906 1.21875 -3.257812 1.21875 -2.84375 C 1.21875 -2.425781 1.300781 -2.050781 1.46875 -1.71875 C 1.632812 -1.394531 1.863281 -1.140625 2.15625 -0.953125 C 2.457031 -0.765625 2.800781 -0.671875 3.1875 -0.671875 Z M 3.1875 -0.671875 "/></g></g></g><g fill="#000000" fill-opacity="1"><g transform="translate(81.384907, 52.209391)"><g/></g></g><g fill="#000000" fill-opacity="1"><g transform="translate(84.416767, 52.209391)"><g><path d="M 4.25 0.109375 C 3.707031 0.109375 3.207031 0.015625 2.75 -0.171875 C 2.300781 -0.367188 1.910156 -0.640625 1.578125 -0.984375 C 1.242188 -1.335938 0.984375 -1.75 0.796875 -2.21875 C 0.617188 -2.695312 0.53125 -3.222656 0.53125 -3.796875 C 0.53125 -4.347656 0.617188 -4.851562 0.796875 -5.3125 C 0.984375 -5.78125 1.242188 -6.191406 1.578125 -6.546875 C 1.921875 -6.898438 2.316406 -7.171875 2.765625 -7.359375 C 3.210938 -7.546875 3.707031 -7.640625 4.25 -7.640625 C 4.601562 -7.640625 4.953125 -7.582031 5.296875 -7.46875 C 5.640625 -7.351562 5.957031 -7.195312 6.25 -7 C 6.539062 -6.8125 6.78125 -6.585938 6.96875 -6.328125 L 6.390625 -5.734375 C 6.210938 -5.941406 6.003906 -6.125 5.765625 -6.28125 C 5.523438 -6.445312 5.273438 -6.570312 5.015625 -6.65625 C 4.765625 -6.75 4.507812 -6.796875 4.25 -6.796875 C 3.84375 -6.796875 3.460938 -6.71875 3.109375 -6.5625 C 2.765625 -6.414062 2.460938 -6.207031 2.203125 -5.9375 C 1.953125 -5.675781 1.753906 -5.359375 1.609375 -4.984375 C 1.472656 -4.617188 1.40625 -4.222656 1.40625 -3.796875 C 1.40625 -3.347656 1.472656 -2.9375 1.609375 -2.5625 C 1.753906 -2.1875 1.957031 -1.863281 2.21875 -1.59375 C 2.488281 -1.320312 2.800781 -1.109375 3.15625 -0.953125 C 3.507812 -0.804688 3.910156 -0.734375 4.359375 -0.734375 C 4.617188 -0.734375 4.875 -0.769531 5.125 -0.84375 C 5.382812 -0.925781 5.625 -1.035156 5.84375 -1.171875 C 6.0625 -1.304688 6.25 -1.460938 6.40625 -1.640625 L 6.828125 -0.9375 C 6.660156 -0.726562 6.4375 -0.546875 6.15625 -0.390625 C 5.882812 -0.234375 5.582031 -0.109375 5.25 -0.015625 C 4.914062 0.0664062 4.582031 0.109375 4.25 0.109375 Z M 4.25 0.109375 "/></g></g></g><g fill="#000000" fill-opacity="1"><g transform="translate(91.736545, 52.209391)"><g><path d="M 3.296875 0.109375 C 2.734375 0.109375 2.234375 -0.015625 1.796875 -0.265625 C 1.359375 -0.523438 1.015625 -0.878906 0.765625 -1.328125 C 0.515625 -1.773438 0.390625 -2.28125 0.390625 -2.84375 C 0.390625 -3.40625 0.515625 -3.90625 0.765625 -4.34375 C 1.015625 -4.789062 1.359375 -5.140625 1.796875 -5.390625 C 2.234375 -5.640625 2.734375 -5.765625 3.296875 -5.765625 C 3.847656 -5.765625 4.34375 -5.640625 4.78125 -5.390625 C 5.21875 -5.140625 5.5625 -4.789062 5.8125 -4.34375 C 6.0625 -3.90625 6.1875 -3.40625 6.1875 -2.84375 C 6.1875 -2.28125 6.0625 -1.773438 5.8125 -1.328125 C 5.5625 -0.878906 5.21875 -0.523438 4.78125 -0.265625 C 4.34375 -0.015625 3.847656 0.109375 3.296875 0.109375 Z M 3.296875 -0.65625 C 3.691406 -0.65625 4.039062 -0.75 4.34375 -0.9375 C 4.65625 -1.132812 4.898438 -1.394531 5.078125 -1.71875 C 5.253906 -2.050781 5.34375 -2.425781 5.34375 -2.84375 C 5.34375 -3.257812 5.253906 -3.628906 5.078125 -3.953125 C 4.898438 -4.285156 4.65625 -4.539062 4.34375 -4.71875 C 4.039062 -4.90625 3.691406 -5 3.296875 -5 C 2.898438 -5 2.539062 -4.90625 2.21875 -4.71875 C 1.90625 -4.539062 1.660156 -4.285156 1.484375 -3.953125 C 1.304688 -3.628906 1.222656 -3.257812 1.234375 -2.84375 C 1.222656 -2.425781 1.304688 -2.050781 1.484375 -1.71875 C 1.660156 -1.394531 1.90625 -1.132812 2.21875 -0.9375 C 2.539062 -0.75 2.898438 -0.65625 3.296875 -0.65625 Z M 3.296875 -0.65625 "/></g></g></g><g fill="#000000" fill-opacity="1"><g transform="translate(98.309184, 52.209391)"><g><path d="M 0.796875 0 L 0.796875 -5.65625 L 1.59375 -5.65625 L 1.625 -4.46875 L 1.5 -4.421875 C 1.570312 -4.660156 1.710938 -4.878906 1.921875 -5.078125 C 2.128906 -5.285156 2.378906 -5.453125 2.671875 -5.578125 C 2.960938 -5.703125 3.265625 -5.765625 3.578125 -5.765625 C 3.992188 -5.765625 4.34375 -5.679688 4.625 -5.515625 C 4.90625 -5.347656 5.117188 -5.09375 5.265625 -4.75 C 5.410156 -4.40625 5.484375 -3.96875 5.484375 -3.4375 L 5.484375 0 L 4.65625 0 L 4.65625 -3.390625 C 4.65625 -3.765625 4.601562 -4.070312 4.5 -4.3125 C 4.40625 -4.550781 4.253906 -4.726562 4.046875 -4.84375 C 3.847656 -4.96875 3.601562 -5.023438 3.3125 -5.015625 C 3.0625 -5.015625 2.832031 -4.972656 2.625 -4.890625 C 2.414062 -4.804688 2.234375 -4.691406 2.078125 -4.546875 C 1.929688 -4.398438 1.816406 -4.234375 1.734375 -4.046875 C 1.648438 -3.859375 1.609375 -3.65625 1.609375 -3.4375 L 1.609375 0 L 1.203125 0 C 1.148438 0 1.09375 0 1.03125 0 C 0.96875 0 0.890625 0 0.796875 0 Z M 0.796875 0 "/></g></g></g><g fill="#000000" fill-opacity="1"><g transform="translate(104.546156, 52.209391)"><g><path d="M 2.640625 0.109375 C 2.160156 0.109375 1.726562 0.0195312 1.34375 -0.15625 C 0.957031 -0.34375 0.65625 -0.582031 0.4375 -0.875 L 1 -1.375 C 1.21875 -1.125 1.46875 -0.929688 1.75 -0.796875 C 2.03125 -0.671875 2.347656 -0.609375 2.703125 -0.609375 C 2.890625 -0.609375 3.050781 -0.625 3.1875 -0.65625 C 3.332031 -0.695312 3.457031 -0.757812 3.5625 -0.84375 C 3.675781 -0.925781 3.757812 -1.019531 3.8125 -1.125 C 3.875 -1.226562 3.90625 -1.347656 3.90625 -1.484375 C 3.90625 -1.722656 3.800781 -1.921875 3.59375 -2.078125 C 3.5 -2.140625 3.363281 -2.203125 3.1875 -2.265625 C 3.019531 -2.335938 2.8125 -2.410156 2.5625 -2.484375 C 2.15625 -2.597656 1.816406 -2.710938 1.546875 -2.828125 C 1.285156 -2.953125 1.082031 -3.09375 0.9375 -3.25 C 0.820312 -3.375 0.738281 -3.507812 0.6875 -3.65625 C 0.632812 -3.8125 0.609375 -3.984375 0.609375 -4.171875 C 0.609375 -4.398438 0.65625 -4.609375 0.75 -4.796875 C 0.851562 -4.992188 0.988281 -5.164062 1.15625 -5.3125 C 1.332031 -5.46875 1.539062 -5.582031 1.78125 -5.65625 C 2.03125 -5.726562 2.296875 -5.765625 2.578125 -5.765625 C 2.847656 -5.765625 3.109375 -5.726562 3.359375 -5.65625 C 3.617188 -5.59375 3.859375 -5.488281 4.078125 -5.34375 C 4.304688 -5.207031 4.503906 -5.046875 4.671875 -4.859375 L 4.171875 -4.328125 C 4.035156 -4.460938 3.882812 -4.585938 3.71875 -4.703125 C 3.550781 -4.828125 3.375 -4.921875 3.1875 -4.984375 C 3 -5.046875 2.8125 -5.078125 2.625 -5.078125 C 2.445312 -5.078125 2.285156 -5.054688 2.140625 -5.015625 C 1.992188 -4.972656 1.867188 -4.910156 1.765625 -4.828125 C 1.660156 -4.753906 1.578125 -4.660156 1.515625 -4.546875 C 1.460938 -4.441406 1.4375 -4.328125 1.4375 -4.203125 C 1.4375 -4.085938 1.457031 -3.988281 1.5 -3.90625 C 1.539062 -3.820312 1.601562 -3.75 1.6875 -3.6875 C 1.789062 -3.601562 1.929688 -3.523438 2.109375 -3.453125 C 2.296875 -3.390625 2.523438 -3.320312 2.796875 -3.25 C 3.117188 -3.164062 3.390625 -3.078125 3.609375 -2.984375 C 3.828125 -2.890625 4.007812 -2.78125 4.15625 -2.65625 C 4.351562 -2.519531 4.492188 -2.359375 4.578125 -2.171875 C 4.660156 -1.984375 4.703125 -1.769531 4.703125 -1.53125 C 4.703125 -1.207031 4.613281 -0.921875 4.4375 -0.671875 C 4.257812 -0.429688 4.015625 -0.238281 3.703125 -0.09375 C 3.390625 0.0390625 3.035156 0.109375 2.640625 0.109375 Z M 2.640625 0.109375 "/></g></g></g><g fill="#000000" fill-opacity="1"><g transform="translate(109.732801, 52.209391)"><g><path d="M 2.796875 0.109375 C 2.359375 0.109375 1.988281 0.0195312 1.6875 -0.15625 C 1.394531 -0.332031 1.171875 -0.585938 1.015625 -0.921875 C 0.859375 -1.265625 0.78125 -1.691406 0.78125 -2.203125 L 0.78125 -5.65625 L 1.609375 -5.65625 L 1.609375 -2.359375 C 1.609375 -1.972656 1.660156 -1.648438 1.765625 -1.390625 C 1.867188 -1.140625 2.023438 -0.945312 2.234375 -0.8125 C 2.453125 -0.6875 2.710938 -0.625 3.015625 -0.625 C 3.253906 -0.625 3.472656 -0.664062 3.671875 -0.75 C 3.878906 -0.832031 4.054688 -0.945312 4.203125 -1.09375 C 4.359375 -1.238281 4.476562 -1.40625 4.5625 -1.59375 C 4.65625 -1.789062 4.703125 -2 4.703125 -2.21875 L 4.703125 -5.65625 L 5.515625 -5.65625 L 5.515625 0 L 4.703125 0 L 4.671875 -1.1875 L 4.8125 -1.25 C 4.71875 -1 4.570312 -0.769531 4.375 -0.5625 C 4.175781 -0.363281 3.9375 -0.203125 3.65625 -0.078125 C 3.375 0.046875 3.085938 0.109375 2.796875 0.109375 Z M 2.796875 0.109375 "/></g></g></g><g fill="#000000" fill-opacity="1"><g transform="translate(116.034742, 52.209391)"><g><path d="M 0.8125 0 L 0.8125 -8.015625 L 1.625 -8.015625 L 1.625 0 Z M 0.8125 0 "/></g></g></g><g fill="#000000" fill-opacity="1"><g transform="translate(118.471063, 52.209391)"><g><path d="M 1.5625 0 L 1.5625 -7.140625 L 2.375 -7.140625 L 2.375 0 Z M 0.296875 -4.875 L 0.296875 -5.65625 L 3.8125 -5.65625 L 3.8125 -4.875 Z M 0.296875 -4.875 "/></g></g></g><g fill="#000000" fill-opacity="1"><g transform="translate(122.488282, 52.209391)"><g><path d="M 3.296875 0.109375 C 2.734375 0.109375 2.234375 -0.015625 1.796875 -0.265625 C 1.359375 -0.523438 1.015625 -0.878906 0.765625 -1.328125 C 0.515625 -1.773438 0.390625 -2.28125 0.390625 -2.84375 C 0.390625 -3.40625 0.515625 -3.90625 0.765625 -4.34375 C 1.015625 -4.789062 1.359375 -5.140625 1.796875 -5.390625 C 2.234375 -5.640625 2.734375 -5.765625 3.296875 -5.765625 C 3.847656 -5.765625 4.34375 -5.640625 4.78125 -5.390625 C 5.21875 -5.140625 5.5625 -4.789062 5.8125 -4.34375 C 6.0625 -3.90625 6.1875 -3.40625 6.1875 -2.84375 C 6.1875 -2.28125 6.0625 -1.773438 5.8125 -1.328125 C 5.5625 -0.878906 5.21875 -0.523438 4.78125 -0.265625 C 4.34375 -0.015625 3.847656 0.109375 3.296875 0.109375 Z M 3.296875 -0.65625 C 3.691406 -0.65625 4.039062 -0.75 4.34375 -0.9375 C 4.65625 -1.132812 4.898438 -1.394531 5.078125 -1.71875 C 5.253906 -2.050781 5.34375 -2.425781 5.34375 -2.84375 C 5.34375 -3.257812 5.253906 -3.628906 5.078125 -3.953125 C 4.898438 -4.285156 4.65625 -4.539062 4.34375 -4.71875 C 4.039062 -4.90625 3.691406 -5 3.296875 -5 C 2.898438 -5 2.539062 -4.90625 2.21875 -4.71875 C 1.90625 -4.539062 1.660156 -4.285156 1.484375 -3.953125 C 1.304688 -3.628906 1.222656 -3.257812 1.234375 -2.84375 C 1.222656 -2.425781 1.304688 -2.050781 1.484375 -1.71875 C 1.660156 -1.394531 1.90625 -1.132812 2.21875 -0.9375 C 2.539062 -0.75 2.898438 -0.65625 3.296875 -0.65625 Z M 3.296875 -0.65625 "/></g></g></g><g fill="#000000" fill-opacity="1"><g transform="translate(129.060921, 52.209391)"><g><path d="M 0.796875 0 L 0.796875 -5.65625 L 1.609375 -5.65625 L 1.625 -4.140625 L 1.53125 -4.359375 C 1.613281 -4.609375 1.742188 -4.835938 1.921875 -5.046875 C 2.097656 -5.265625 2.304688 -5.4375 2.546875 -5.5625 C 2.796875 -5.695312 3.070312 -5.765625 3.375 -5.765625 C 3.488281 -5.765625 3.597656 -5.753906 3.703125 -5.734375 C 3.816406 -5.722656 3.910156 -5.703125 3.984375 -5.671875 L 3.75 -4.765625 C 3.65625 -4.804688 3.5625 -4.835938 3.46875 -4.859375 C 3.375 -4.878906 3.28125 -4.890625 3.1875 -4.890625 C 2.945312 -4.890625 2.726562 -4.84375 2.53125 -4.75 C 2.332031 -4.664062 2.164062 -4.546875 2.03125 -4.390625 C 1.894531 -4.234375 1.789062 -4.050781 1.71875 -3.84375 C 1.644531 -3.644531 1.609375 -3.429688 1.609375 -3.203125 L 1.609375 0 Z M 0.796875 0 "/></g></g></g><g fill="#000000" fill-opacity="1"><g transform="translate(133.099792, 52.209391)"><g><path d="M 1 0 L 1 -5.65625 L 1.8125 -5.65625 L 1.8125 0 Z M 1.40625 -6.875 C 1.207031 -6.875 1.054688 -6.925781 0.953125 -7.03125 C 0.847656 -7.132812 0.796875 -7.273438 0.796875 -7.453125 C 0.796875 -7.640625 0.847656 -7.785156 0.953125 -7.890625 C 1.054688 -8.003906 1.207031 -8.0625 1.40625 -8.0625 C 1.601562 -8.0625 1.753906 -8.003906 1.859375 -7.890625 C 1.972656 -7.785156 2.03125 -7.640625 2.03125 -7.453125 C 2.03125 -7.285156 1.972656 -7.144531 1.859375 -7.03125 C 1.753906 -6.925781 1.601562 -6.875 1.40625 -6.875 Z M 1.40625 -6.875 "/></g></g></g><g fill="#000000" fill-opacity="1"><g transform="translate(135.90427, 52.209391)"><g><path d="M 3.296875 0.109375 C 2.734375 0.109375 2.234375 -0.015625 1.796875 -0.265625 C 1.359375 -0.523438 1.015625 -0.878906 0.765625 -1.328125 C 0.515625 -1.773438 0.390625 -2.28125 0.390625 -2.84375 C 0.390625 -3.40625 0.515625 -3.90625 0.765625 -4.34375 C 1.015625 -4.789062 1.359375 -5.140625 1.796875 -5.390625 C 2.234375 -5.640625 2.734375 -5.765625 3.296875 -5.765625 C 3.847656 -5.765625 4.34375 -5.640625 4.78125 -5.390625 C 5.21875 -5.140625 5.5625 -4.789062 5.8125 -4.34375 C 6.0625 -3.90625 6.1875 -3.40625 6.1875 -2.84375 C 6.1875 -2.28125 6.0625 -1.773438 5.8125 -1.328125 C 5.5625 -0.878906 5.21875 -0.523438 4.78125 -0.265625 C 4.34375 -0.015625 3.847656 0.109375 3.296875 0.109375 Z M 3.296875 -0.65625 C 3.691406 -0.65625 4.039062 -0.75 4.34375 -0.9375 C 4.65625 -1.132812 4.898438 -1.394531 5.078125 -1.71875 C 5.253906 -2.050781 5.34375 -2.425781 5.34375 -2.84375 C 5.34375 -3.257812 5.253906 -3.628906 5.078125 -3.953125 C 4.898438 -4.285156 4.65625 -4.539062 4.34375 -4.71875 C 4.039062 -4.90625 3.691406 -5 3.296875 -5 C 2.898438 -5 2.539062 -4.90625 2.21875 -4.71875 C 1.90625 -4.539062 1.660156 -4.285156 1.484375 -3.953125 C 1.304688 -3.628906 1.222656 -3.257812 1.234375 -2.84375 C 1.222656 -2.425781 1.304688 -2.050781 1.484375 -1.71875 C 1.660156 -1.394531 1.90625 -1.132812 2.21875 -0.9375 C 2.539062 -0.75 2.898438 -0.65625 3.296875 -0.65625 Z M 3.296875 -0.65625 "/></g></g></g><g fill="#000000" fill-opacity="1"><g transform="translate(142.476909, 52.209391)"><g><path d="M 2.640625 0.109375 C 2.160156 0.109375 1.726562 0.0195312 1.34375 -0.15625 C 0.957031 -0.34375 0.65625 -0.582031 0.4375 -0.875 L 1 -1.375 C 1.21875 -1.125 1.46875 -0.929688 1.75 -0.796875 C 2.03125 -0.671875 2.347656 -0.609375 2.703125 -0.609375 C 2.890625 -0.609375 3.050781 -0.625 3.1875 -0.65625 C 3.332031 -0.695312 3.457031 -0.757812 3.5625 -0.84375 C 3.675781 -0.925781 3.757812 -1.019531 3.8125 -1.125 C 3.875 -1.226562 3.90625 -1.347656 3.90625 -1.484375 C 3.90625 -1.722656 3.800781 -1.921875 3.59375 -2.078125 C 3.5 -2.140625 3.363281 -2.203125 3.1875 -2.265625 C 3.019531 -2.335938 2.8125 -2.410156 2.5625 -2.484375 C 2.15625 -2.597656 1.816406 -2.710938 1.546875 -2.828125 C 1.285156 -2.953125 1.082031 -3.09375 0.9375 -3.25 C 0.820312 -3.375 0.738281 -3.507812 0.6875 -3.65625 C 0.632812 -3.8125 0.609375 -3.984375 0.609375 -4.171875 C 0.609375 -4.398438 0.65625 -4.609375 0.75 -4.796875 C 0.851562 -4.992188 0.988281 -5.164062 1.15625 -5.3125 C 1.332031 -5.46875 1.539062 -5.582031 1.78125 -5.65625 C 2.03125 -5.726562 2.296875 -5.765625 2.578125 -5.765625 C 2.847656 -5.765625 3.109375 -5.726562 3.359375 -5.65625 C 3.617188 -5.59375 3.859375 -5.488281 4.078125 -5.34375 C 4.304688 -5.207031 4.503906 -5.046875 4.671875 -4.859375 L 4.171875 -4.328125 C 4.035156 -4.460938 3.882812 -4.585938 3.71875 -4.703125 C 3.550781 -4.828125 3.375 -4.921875 3.1875 -4.984375 C 3 -5.046875 2.8125 -5.078125 2.625 -5.078125 C 2.445312 -5.078125 2.285156 -5.054688 2.140625 -5.015625 C 1.992188 -4.972656 1.867188 -4.910156 1.765625 -4.828125 C 1.660156 -4.753906 1.578125 -4.660156 1.515625 -4.546875 C 1.460938 -4.441406 1.4375 -4.328125 1.4375 -4.203125 C 1.4375 -4.085938 1.457031 -3.988281 1.5 -3.90625 C 1.539062 -3.820312 1.601562 -3.75 1.6875 -3.6875 C 1.789062 -3.601562 1.929688 -3.523438 2.109375 -3.453125 C 2.296875 -3.390625 2.523438 -3.320312 2.796875 -3.25 C 3.117188 -3.164062 3.390625 -3.078125 3.609375 -2.984375 C 3.828125 -2.890625 4.007812 -2.78125 4.15625 -2.65625 C 4.351562 -2.519531 4.492188 -2.359375 4.578125 -2.171875 C 4.660156 -1.984375 4.703125 -1.769531 4.703125 -1.53125 C 4.703125 -1.207031 4.613281 -0.921875 4.4375 -0.671875 C 4.257812 -0.429688 4.015625 -0.238281 3.703125 -0.09375 C 3.390625 0.0390625 3.035156 0.109375 2.640625 0.109375 Z M 2.640625 0.109375 "/></g></g></g><g fill="#006a5a" fill-opacity="1"><g transform="translate(2.274859, 36.021516)"><g><path d="M 13.703125 -3.21875 L 13.703125 -7.96875 L 5.9375 -7.96875 L 5.9375 -2.421875 L 7.53125 -2.328125 L 7.53125 0 L 0.875 0 L 0.875 -2.21875 L 1.78125 -2.3125 C 2.3125 -2.363281 2.578125 -2.617188 2.578125 -3.078125 L 2.578125 -15.84375 L 1.015625 -15.9375 L 1.015625 -18.265625 L 7.65625 -18.265625 L 7.65625 -16.046875 L 6.75 -15.953125 C 6.457031 -15.921875 6.25 -15.84375 6.125 -15.71875 C 6 -15.601562 5.9375 -15.378906 5.9375 -15.046875 L 5.9375 -10.796875 L 13.703125 -10.796875 L 13.703125 -15.84375 L 12.140625 -15.9375 L 12.140625 -18.265625 L 18.78125 -18.265625 L 18.78125 -16.046875 L 17.875 -15.953125 C 17.34375 -15.898438 17.078125 -15.609375 17.078125 -15.078125 L 17.078125 -2.421875 L 18.65625 -2.328125 L 18.65625 0 L 12 0 L 12 -2.21875 L 12.90625 -2.3125 C 13.1875 -2.34375 13.390625 -2.414062 13.515625 -2.53125 C 13.640625 -2.65625 13.703125 -2.882812 13.703125 -3.21875 Z M 13.703125 -3.21875 "/></g></g></g><g fill="#006a5a" fill-opacity="1"><g transform="translate(21.824284, 36.021516)"><g><path d="M 13.234375 -13.265625 L 13.234375 -3.046875 C 13.234375 -2.753906 13.285156 -2.550781 13.390625 -2.4375 C 13.492188 -2.332031 13.671875 -2.269531 13.921875 -2.25 L 14.8125 -2.203125 L 14.8125 0 L 10.4375 0 L 10.4375 -1.59375 L 10.359375 -1.625 C 9.441406 -0.300781 8.1875 0.359375 6.59375 0.359375 C 4.726562 0.359375 3.34375 -0.234375 2.4375 -1.421875 C 1.539062 -2.617188 1.09375 -4.25 1.09375 -6.3125 C 1.09375 -8.800781 1.695312 -10.742188 2.90625 -12.140625 C 4.113281 -13.535156 5.925781 -14.234375 8.34375 -14.234375 C 9.90625 -14.234375 11.535156 -13.910156 13.234375 -13.265625 Z M 10.046875 -4.375 L 10.046875 -11.484375 C 9.535156 -11.722656 8.832031 -11.84375 7.9375 -11.84375 C 6.707031 -11.84375 5.816406 -11.347656 5.265625 -10.359375 C 4.722656 -9.367188 4.453125 -8.054688 4.453125 -6.421875 C 4.453125 -3.460938 5.40625 -1.984375 7.3125 -1.984375 C 8.113281 -1.984375 8.769531 -2.222656 9.28125 -2.703125 C 9.789062 -3.191406 10.046875 -3.75 10.046875 -4.375 Z M 10.046875 -4.375 "/></g></g></g><g fill="#006a5a" fill-opacity="1"><g transform="translate(37.392436, 36.021516)"><g><path d="M 4.234375 -7.0625 C 4.234375 -5.5 4.523438 -4.285156 5.109375 -3.421875 C 5.691406 -2.566406 6.535156 -2.140625 7.640625 -2.140625 C 8.753906 -2.140625 9.851562 -2.535156 10.9375 -3.328125 L 12.109375 -1.203125 C 10.804688 -0.140625 9.175781 0.390625 7.21875 0.390625 C 5.257812 0.390625 3.71875 -0.226562 2.59375 -1.46875 C 1.46875 -2.707031 0.90625 -4.535156 0.90625 -6.953125 C 0.90625 -9.367188 1.550781 -11.1875 2.84375 -12.40625 C 4.132812 -13.625 5.585938 -14.234375 7.203125 -14.234375 C 8.828125 -14.234375 10.335938 -13.859375 11.734375 -13.109375 L 11.734375 -9.53125 L 9.203125 -9.34375 L 9.203125 -10.65625 C 9.203125 -11.15625 9.019531 -11.460938 8.65625 -11.578125 C 8.300781 -11.691406 7.929688 -11.75 7.546875 -11.75 C 5.335938 -11.75 4.234375 -10.1875 4.234375 -7.0625 Z M 4.234375 -7.0625 "/></g></g></g><g fill="#006a5a" fill-opacity="1"><g transform="translate(50.324706, 36.021516)"><g><path d="M 2.609375 -3.078125 L 2.609375 -16.453125 C 2.609375 -16.742188 2.554688 -16.941406 2.453125 -17.046875 C 2.359375 -17.160156 2.179688 -17.226562 1.921875 -17.25 L 0.96875 -17.3125 L 0.96875 -19.578125 L 5.84375 -19.578125 L 5.84375 -7.6875 C 6.851562 -7.78125 7.734375 -8.09375 8.484375 -8.625 C 9.234375 -9.15625 9.75 -9.851562 10.03125 -10.71875 C 10.082031 -10.894531 10.109375 -11.039062 10.109375 -11.15625 C 10.109375 -11.46875 9.9375 -11.625 9.59375 -11.625 L 8.546875 -11.671875 L 8.546875 -13.8125 L 14.234375 -13.8125 L 14.234375 -11.59375 L 12.90625 -11.53125 C 12.664062 -9.664062 11.863281 -8.191406 10.5 -7.109375 L 13.1875 -2.28125 L 14.859375 -2.203125 L 14.859375 0 L 10.84375 0 L 7.71875 -5.71875 C 7.113281 -5.550781 6.488281 -5.421875 5.84375 -5.328125 L 5.84375 -2.28125 L 5.875 -2.28125 L 7.4375 -2.203125 L 7.4375 0 L 0.90625 0 L 0.90625 -2.09375 L 1.8125 -2.171875 C 2.082031 -2.203125 2.28125 -2.273438 2.40625 -2.390625 C 2.539062 -2.515625 2.609375 -2.742188 2.609375 -3.078125 Z M 2.609375 -3.078125 "/></g></g></g><g fill="#006a5a" fill-opacity="1"><g transform="translate(65.590825, 36.021516)"><g><path d="M 0.9375 0 L 0.9375 -2.21875 L 1.84375 -2.3125 C 2.375 -2.363281 2.640625 -2.617188 2.640625 -3.078125 L 2.640625 -15.84375 L 1.078125 -15.9375 L 1.078125 -18.265625 L 8.59375 -18.265625 C 11.289062 -18.265625 13.394531 -17.550781 14.90625 -16.125 C 16.414062 -14.695312 17.171875 -12.582031 17.171875 -9.78125 C 17.171875 -8.039062 16.941406 -6.523438 16.484375 -5.234375 C 16.023438 -3.941406 15.398438 -2.929688 14.609375 -2.203125 C 13.035156 -0.734375 11.078125 0 8.734375 0 Z M 5.984375 -15.609375 L 5.984375 -2.640625 L 8.796875 -2.640625 C 10.367188 -2.640625 11.59375 -3.207031 12.46875 -4.34375 C 13.351562 -5.476562 13.796875 -7.125 13.796875 -9.28125 C 13.796875 -13.5 12.007812 -15.609375 8.4375 -15.609375 Z M 5.984375 -15.609375 "/></g></g></g><g fill="#006a5a" fill-opacity="1"><g transform="translate(83.84977, 36.021516)"><g><path d="M 7.796875 -14.234375 C 9.171875 -14.234375 10.257812 -13.894531 11.0625 -13.21875 C 11.875 -12.550781 12.28125 -11.613281 12.28125 -10.40625 C 12.28125 -9.601562 12.101562 -8.894531 11.75 -8.28125 C 11.40625 -7.664062 10.976562 -7.179688 10.46875 -6.828125 C 9.957031 -6.484375 9.332031 -6.203125 8.59375 -5.984375 C 7.363281 -5.617188 5.984375 -5.4375 4.453125 -5.4375 C 4.503906 -4.46875 4.804688 -3.6875 5.359375 -3.09375 C 5.910156 -2.5 6.753906 -2.203125 7.890625 -2.203125 C 9.023438 -2.203125 10.160156 -2.601562 11.296875 -3.40625 L 12.328125 -1.1875 C 11.960938 -0.851562 11.34375 -0.507812 10.46875 -0.15625 C 9.601562 0.1875 8.613281 0.359375 7.5 0.359375 C 5.257812 0.359375 3.617188 -0.253906 2.578125 -1.484375 C 1.535156 -2.722656 1.015625 -4.421875 1.015625 -6.578125 C 1.015625 -8.742188 1.609375 -10.5625 2.796875 -12.03125 C 3.992188 -13.5 5.660156 -14.234375 7.796875 -14.234375 Z M 6.546875 -7.953125 C 7.210938 -8.066406 7.828125 -8.328125 8.390625 -8.734375 C 8.960938 -9.148438 9.25 -9.644531 9.25 -10.21875 C 9.25 -11.332031 8.703125 -11.890625 7.609375 -11.890625 C 6.585938 -11.890625 5.800781 -11.484375 5.25 -10.671875 C 4.695312 -9.859375 4.394531 -8.882812 4.34375 -7.75 C 5.144531 -7.769531 5.878906 -7.835938 6.546875 -7.953125 Z M 6.546875 -7.953125 "/></g></g></g><g fill="#006a5a" fill-opacity="1"><g transform="translate(97.13898, 36.021516)"><g><path d="M 0.734375 -11.625 L 0.734375 -13.8125 L 5.390625 -13.8125 L 5.390625 -12.03125 C 5.859375 -12.707031 6.484375 -13.242188 7.265625 -13.640625 C 8.054688 -14.035156 8.910156 -14.234375 9.828125 -14.234375 C 11.222656 -14.234375 12.300781 -13.832031 13.0625 -13.03125 C 13.820312 -12.238281 14.203125 -11.046875 14.203125 -9.453125 L 14.203125 -2.28125 L 15.765625 -2.203125 L 15.765625 0 L 9.234375 0 L 9.234375 -2.09375 L 10.140625 -2.171875 C 10.410156 -2.203125 10.609375 -2.273438 10.734375 -2.390625 C 10.867188 -2.515625 10.9375 -2.742188 10.9375 -3.078125 L 10.9375 -8.734375 C 10.9375 -9.742188 10.78125 -10.488281 10.46875 -10.96875 C 10.15625 -11.457031 9.5625 -11.703125 8.6875 -11.703125 C 7.820312 -11.703125 7.128906 -11.425781 6.609375 -10.875 C 6.097656 -10.320312 5.84375 -9.671875 5.84375 -8.921875 L 5.84375 -2.28125 L 7.421875 -2.203125 L 7.421875 0 L 0.875 0 L 0.875 -2.09375 L 1.78125 -2.171875 C 2.0625 -2.203125 2.265625 -2.273438 2.390625 -2.390625 C 2.515625 -2.515625 2.578125 -2.742188 2.578125 -3.078125 L 2.578125 -10.6875 C 2.578125 -11.238281 2.347656 -11.519531 1.890625 -11.53125 Z M 0.734375 -11.625 "/></g></g></g><g fill="#006a5a" fill-opacity="1"><g transform="translate(113.613217, 36.021516)"><g><path d="M 3.953125 -16.734375 L 5.734375 -16.734375 L 5.734375 -13.8125 L 9.390625 -13.8125 L 9.125 -11.515625 L 5.734375 -11.515625 L 5.734375 -4.28125 C 5.734375 -3.476562 5.878906 -2.914062 6.171875 -2.59375 C 6.472656 -2.269531 6.925781 -2.109375 7.53125 -2.109375 C 8.144531 -2.109375 8.765625 -2.300781 9.390625 -2.6875 L 10.21875 -0.578125 C 9.300781 0.0664062 8.140625 0.390625 6.734375 0.390625 C 5.910156 0.390625 5.210938 0.28125 4.640625 0.0625 C 4.078125 -0.144531 3.65625 -0.375 3.375 -0.625 C 3.101562 -0.882812 2.894531 -1.257812 2.75 -1.75 C 2.601562 -2.25 2.519531 -2.640625 2.5 -2.921875 C 2.476562 -3.203125 2.46875 -3.617188 2.46875 -4.171875 L 2.46875 -11.515625 L 0.515625 -11.515625 L 0.796875 -13.515625 C 1.660156 -13.585938 2.3125 -13.894531 2.75 -14.4375 C 3.1875 -14.976562 3.585938 -15.742188 3.953125 -16.734375 Z M 3.953125 -16.734375 "/></g></g></g><g fill="#006a5a" fill-opacity="1"><g transform="translate(123.964523, 36.021516)"><g><path d="M 13.234375 -13.265625 L 13.234375 -3.046875 C 13.234375 -2.753906 13.285156 -2.550781 13.390625 -2.4375 C 13.492188 -2.332031 13.671875 -2.269531 13.921875 -2.25 L 14.8125 -2.203125 L 14.8125 0 L 10.4375 0 L 10.4375 -1.59375 L 10.359375 -1.625 C 9.441406 -0.300781 8.1875 0.359375 6.59375 0.359375 C 4.726562 0.359375 3.34375 -0.234375 2.4375 -1.421875 C 1.539062 -2.617188 1.09375 -4.25 1.09375 -6.3125 C 1.09375 -8.800781 1.695312 -10.742188 2.90625 -12.140625 C 4.113281 -13.535156 5.925781 -14.234375 8.34375 -14.234375 C 9.90625 -14.234375 11.535156 -13.910156 13.234375 -13.265625 Z M 10.046875 -4.375 L 10.046875 -11.484375 C 9.535156 -11.722656 8.832031 -11.84375 7.9375 -11.84375 C 6.707031 -11.84375 5.816406 -11.347656 5.265625 -10.359375 C 4.722656 -9.367188 4.453125 -8.054688 4.453125 -6.421875 C 4.453125 -3.460938 5.40625 -1.984375 7.3125 -1.984375 C 8.113281 -1.984375 8.769531 -2.222656 9.28125 -2.703125 C 9.789062 -3.191406 10.046875 -3.75 10.046875 -4.375 Z M 10.046875 -4.375 "/></g></g></g><g fill="#006a5a" fill-opacity="1"><g transform="translate(139.532676, 36.021516)"><g><path d="M 5.828125 -19.578125 L 5.828125 -2.28125 L 7.390625 -2.203125 L 7.390625 0 L 0.84375 0 L 0.84375 -2.09375 L 1.765625 -2.171875 C 2.285156 -2.222656 2.546875 -2.515625 2.546875 -3.046875 L 2.546875 -16.59375 C 2.546875 -17 2.320312 -17.21875 1.875 -17.25 L 0.90625 -17.3125 L 0.90625 -19.578125 Z M 5.828125 -19.578125 "/></g></g></g></svg>